<svg width="20" height="20" viewBox="0 0 20 20" fill="none" xmlns="http://www.w3.org/2000/svg">
<path d="M10 20C15.5228 20 20 15.5228 20 10C20 4.47715 15.5228 0 10 0C4.47715 0 0 4.47715 0 10C0 15.5228 4.47715 20 10 20Z" fill="black"/>
<path d="M9.33646 5.59885L9.11424 3.23329L6.57091 2.56885L4.28424 4.42774L4.03979 6.94662L7.40535 7.16996L9.33646 5.59885Z" fill="white"/>
<path d="M3.4088 7.15439L3.65658 4.59216L2.42769 4.65327C1.35324 6.16994 0.714355 8.01772 0.714355 10.0144C0.714355 10.4233 0.751022 10.8255 0.802133 11.2199L1.97324 10.7066L3.4088 7.15439Z" fill="white"/>
<path d="M9.43222 2.68769L12.3578 1.89102L12.4611 1.05436C11.6778 0.8388 10.8578 0.714355 10.0067 0.714355C8.77444 0.714355 7.59999 0.961022 6.52222 1.3988L6.71444 1.97769L9.43222 2.68769Z" fill="white"/>
<path d="M15.4656 4.83768L14.2822 6.96324L14.5633 9.40768L17.4722 11.0366L19.2856 9.78102C19.2367 7.82435 18.5822 6.0199 17.5011 4.54102L15.68 4.80657L15.4656 4.83768Z" fill="white"/>
<path d="M16.2844 4.10435L17.0722 3.98879C16.0089 2.74324 14.6267 1.78546 13.05 1.23657L12.9578 1.99324L15.3733 4.23546L16.2844 4.10435Z" fill="white"/>
<path d="M8.15105 7.34776L7.83105 7.60887L8.38994 11.3167L11.3555 11.84L13.9211 9.47554L13.6877 7.13998L9.72661 6.06665L8.15105 7.34776Z" fill="white"/>
<path d="M2.14993 11.2933L0.897705 11.8422C1.37104 14.21 2.74882 16.25 4.64882 17.5989L5.64771 17.0411L4.88993 13.8078L2.14993 11.2933Z" fill="white"/>
<path d="M12.0355 15.6199L11.2066 12.4321L8.19325 11.8988L5.50769 13.7777L6.24769 16.9388L10.1555 17.8144L10.6899 17.191L12.0355 15.6199Z" fill="white"/>
<path d="M16.6055 15.7099L16.7477 16.3944C18.2121 14.8444 19.1466 12.7955 19.271 10.5299L17.751 11.5821L16.6055 15.7099Z" fill="white"/>
<path d="M12.5099 15.9999L10.5699 18.2621V19.2843C12.7433 19.1521 14.7133 18.2732 16.2322 16.8965L16.0455 16.0032L12.5099 15.9999Z" fill="white"/>
<path opacity="0.5" d="M18.4933 6.20776C18.6799 6.96554 18.7811 7.75665 18.7811 8.57221C18.7811 14.0133 14.3699 18.4244 8.92883 18.4244C7.1255 18.4244 5.43772 17.9378 3.98328 17.0922C5.6055 18.47 7.7055 19.3033 9.99994 19.3033C15.1377 19.3033 19.3022 15.1389 19.3022 10.0011C19.3022 8.64888 19.0111 7.36665 18.4933 6.20776Z" fill="black"/>
</svg>
