<svg width="20" height="20" viewBox="0 0 20 20" fill="none" xmlns="http://www.w3.org/2000/svg">
<g opacity="0.6">
<path d="M18.6989 5.68217L14.3489 1.33217L14.3477 1.33328C14.3322 1.31661 14.3166 1.29883 14.3 1.28217C12.4977 -0.520055 8.11552 0.941056 4.51108 4.5455C0.906633 8.14995 -0.553367 12.5322 1.24774 14.3344C1.26441 14.3511 1.28108 14.3666 1.29886 14.3822L1.29774 14.3833L5.64774 18.7333C7.44997 20.5355 11.8322 19.0744 15.4366 15.4699C19.0411 11.8655 20.5011 7.48439 18.6989 5.68217Z" fill="black"/>
<path d="M12.1499 1.17896C11.6021 1.17896 10.9733 1.29118 10.2921 1.51896C8.53881 2.1034 6.65325 3.34562 4.98214 5.01673C3.31103 6.68784 2.06881 8.5734 1.48436 10.3267C0.959917 11.9001 1.04547 13.189 1.71881 13.8634C2.39214 14.5367 3.68103 14.6223 5.25547 14.0978C7.0077 13.5134 8.89325 12.2712 10.5655 10.6001C12.2366 8.92895 13.4788 7.0434 14.0633 5.29007C14.5877 3.71673 14.5021 2.42784 13.8288 1.7534C13.4466 1.37229 12.8666 1.17896 12.1499 1.17896Z" fill="#969799"/>
<path d="M5.53998 14.7045C5.51553 14.7133 5.49109 14.7222 5.46665 14.73C4.71998 14.9789 4.02665 15.1045 3.40109 15.1045C3.30109 15.1045 3.20331 15.1011 3.10665 15.0945C3.04887 15.0911 2.9922 15.0856 2.93665 15.0789L6.11998 18.2622C6.79331 18.9356 8.0822 19.0211 9.65665 18.4967C11.4089 17.9122 13.2944 16.67 14.9666 14.9989C15.1489 14.8167 15.3255 14.6322 15.4978 14.4445C14.0411 15.7445 12.2733 16.5067 10.3689 16.5067C8.5922 16.5078 6.93665 15.8467 5.53998 14.7045Z" fill="#606060"/>
<path d="M18.2278 6.1533L15.0445 2.96997C15.0511 3.02553 15.0556 3.08219 15.06 3.13997C15.1067 3.84108 14.9834 4.63553 14.6956 5.50108C14.0789 7.34997 12.78 9.32775 11.0367 11.0711C9.3167 12.7911 7.36782 14.0789 5.54004 14.7044C6.93671 15.8466 8.59115 16.5077 10.3667 16.5077C12.2723 16.5077 14.0389 15.7455 15.4956 14.4455C16.8989 12.9189 17.9423 11.2511 18.4623 9.68997C18.9878 8.11664 18.9023 6.82775 18.2278 6.1533Z" fill="#606060"/>
<path opacity="0.2" d="M5.53998 14.7045C5.51553 14.7133 5.49109 14.7222 5.46665 14.73C4.71998 14.9789 4.02665 15.1045 3.40109 15.1045C3.30109 15.1045 3.20331 15.1011 3.10665 15.0945C3.04887 15.0911 2.9922 15.0856 2.93665 15.0789L6.11998 18.2622C6.79331 18.9356 8.0822 19.0211 9.65665 18.4967C11.4089 17.9122 13.2944 16.67 14.9666 14.9989C15.1489 14.8167 15.3255 14.6322 15.4978 14.4445C14.0411 15.7445 12.2733 16.5067 10.3689 16.5067C8.5922 16.5078 6.93665 15.8467 5.53998 14.7045Z" fill="black"/>
<path opacity="0.2" d="M2.05893 10.6922C2.71448 8.72665 4.10782 6.6122 5.98226 4.73665C7.33782 3.37998 8.82004 2.27776 10.28 1.52332C8.53115 2.10887 6.65004 3.34887 4.98226 5.01665C3.31115 6.68776 2.06893 8.57332 1.48448 10.3266C0.960039 11.9 1.0456 13.1889 1.71893 13.8633C1.7756 13.92 1.83671 13.97 1.90226 14.0178C1.56115 13.2066 1.60893 12.0433 2.05893 10.6922Z" fill="white"/>
</g>
</svg>
