<svg width="20" height="20" viewBox="0 0 20 20" fill="none" xmlns="http://www.w3.org/2000/svg">
<g opacity="0.6">
<path d="M10 20C15.5228 20 20 15.5228 20 10C20 4.47715 15.5228 0 10 0C4.47715 0 0 4.47715 0 10C0 15.5228 4.47715 20 10 20Z" fill="black"/>
<path d="M9.55104 8.37455C9.54327 8.31233 9.53882 8.2501 9.53438 8.18899C8.70327 8.17455 7.86771 8.18677 6.90216 8.24566C6.80216 10.2001 7.04216 12.2068 7.59327 14.0534C8.23993 16.2168 9.31216 18.059 10.6222 19.2857C11.4088 19.2323 12.1855 19.0834 12.941 18.8312C14.5388 18.2979 15.9255 17.3512 17.0022 16.1057C12.8844 14.3212 9.90549 11.2468 9.55104 8.37455Z" fill="#EA3636"/>
<path d="M3.82222 8.59448C2.72444 8.78226 1.69111 9.0367 0.736664 9.34893C0.657775 10.46 0.788886 11.5845 1.11777 12.6778C2.59444 11.4478 3.57222 9.98115 3.82222 8.59448Z" fill="#EA3636"/>
<path d="M5.95112 8.31665C5.60557 8.34887 5.26112 8.38665 4.9289 8.42776C4.92446 8.49109 4.9189 8.55443 4.9089 8.61887C4.64557 10.3989 3.40223 12.25 1.4989 13.7367C2.86779 16.8789 5.85223 19.0133 9.27001 19.2822C8.15557 17.9911 7.26112 16.2944 6.67446 14.3311C6.10668 12.4278 5.85668 10.3522 5.95112 8.31665Z" fill="#EA3636"/>
<path d="M3.08213 5.78889C2.8288 5.50889 2.51436 5.26555 2.14769 5.05444C1.98658 5.31222 1.83547 5.57889 1.6988 5.85555C1.3288 6.59555 1.07102 7.37222 0.909912 8.16444C1.83325 7.88889 2.81991 7.66333 3.85658 7.49667C3.77991 6.84667 3.51991 6.27222 3.08213 5.78889Z" fill="#EA3636"/>
<path d="M4.92326 7.34672C5.30214 7.30005 5.67548 7.26116 6.03437 7.23005C6.30437 4.73672 7.09214 2.51561 8.26326 0.886719C7.85992 0.964497 7.46103 1.06227 7.0677 1.19339C5.34881 1.76672 3.87326 2.80894 2.7677 4.19227C3.20103 4.45005 3.57992 4.75005 3.88881 5.09005C4.46992 5.73227 4.81659 6.49116 4.92326 7.34672Z" fill="#EA3636"/>
<path d="M17.671 15.23C17.901 14.89 18.1177 14.54 18.3044 14.1666C18.981 12.8122 19.3077 11.3478 19.2844 9.87887C16.641 8.95887 13.6544 8.38776 10.6155 8.24109C10.9366 10.8433 13.761 13.6266 17.671 15.23Z" fill="#EA3636"/>
<path d="M10.6489 7.15444C13.6378 7.30444 16.5778 7.83889 19.1889 8.69666C19.1111 8.15111 18.9889 7.60778 18.81 7.07333C18.4323 5.93778 17.8489 4.91778 17.1134 4.03778C16.84 4.02222 16.5834 4.01111 16.3556 4.01111C14.1456 4.01111 12.3245 4.63778 11.3611 5.73111C10.9911 6.14666 10.7523 6.62444 10.6489 7.15444Z" fill="#EA3636"/>
<path d="M6.99451 7.16449C7.9434 7.11005 8.76006 7.09893 9.57117 7.11449C9.6934 6.32338 10.0245 5.61893 10.5556 5.01782C11.6923 3.73227 13.6356 3.0056 16.0401 2.94671C14.3978 1.53782 12.2767 0.713379 10.0045 0.713379C9.87673 0.713379 9.75006 0.723379 9.62451 0.728934C8.25895 2.18671 7.30451 4.50227 6.99451 7.16449Z" fill="#EA3636"/>
<path opacity="0.5" d="M18.4756 6.22217C18.6622 6.97995 18.7634 7.77106 18.7634 8.58661C18.7634 14.0277 14.3522 18.4388 8.91113 18.4388C7.1078 18.4388 5.42002 17.9522 3.96558 17.1066C5.5878 18.4844 7.6878 19.3177 9.98224 19.3177C15.12 19.3177 19.2845 15.1533 19.2845 10.0155C19.2845 8.66328 18.9934 7.37995 18.4756 6.22217Z" fill="black"/>
<path opacity="0.2" d="M11.5189 1.2223C11.5256 1.2223 11.5322 1.2223 11.5389 1.2223C11.7744 1.2223 11.8089 0.881187 11.5767 0.838965C11.0389 0.741187 10.4844 0.688965 9.91889 0.688965C5.69778 0.688965 2.13222 3.54341 1.04778 7.42341C0.984442 7.64897 1.30444 7.77119 1.40666 7.56119C3.23111 3.8123 7.07778 1.2223 11.5189 1.2223Z" fill="white"/>
</g>
</svg>
