<svg width="140" height="33" viewBox="0 0 140 33" fill="none" xmlns="http://www.w3.org/2000/svg">
<g clip-path="url(#clip0_141_2536)">
<path d="M56.1609 9.99019C56.0259 9.18016 55.4859 8.77515 54.5409 8.77515H53.5959C52.7858 8.77515 52.3808 9.04516 52.1108 9.72018L49.4107 16.3354L46.7106 9.72018C46.4406 9.04516 45.9006 8.77515 45.2256 8.77515H44.2805C43.4705 8.77515 42.7955 9.31517 42.7955 9.99019L41.1754 22.4106C41.1754 22.5456 41.1754 22.6806 41.1754 22.6806C41.1754 23.4907 41.7154 24.0307 42.5255 24.0307H43.2005C44.0105 24.0307 44.5505 23.4907 44.6855 22.8156L45.6306 15.6604L47.7906 21.1956C47.9257 21.4656 48.3307 22.1406 49.2757 22.1406H49.8157C50.7608 22.1406 51.1658 21.6006 51.3008 21.1956L53.4608 15.6604L54.4059 22.8156C54.5409 23.6257 55.0809 24.0307 55.8909 24.0307H56.566C57.376 24.0307 57.916 23.4907 57.916 22.6806C57.916 22.6806 57.916 22.5456 57.916 22.4106L56.1609 9.99019Z" fill="#FDB913"/>
<path d="M66.6917 8.50537C64.2616 8.50537 62.2366 9.3154 60.8865 10.9355C59.6715 12.2855 58.9965 14.3106 58.9965 16.4707C58.9965 18.6307 59.6715 20.5208 60.8865 22.0059C62.2366 23.6259 64.2616 24.4359 66.6917 24.4359C69.1218 24.4359 71.1469 23.6259 72.4969 22.0059C73.712 20.6558 74.387 18.6307 74.387 16.4707C74.387 14.3106 73.712 12.2855 72.4969 10.9355C71.1469 9.3154 69.1218 8.50537 66.6917 8.50537ZM66.6917 21.1958C64.1266 21.1958 62.5066 19.3058 62.5066 16.3357C62.5066 13.5006 64.2616 11.4755 66.6917 11.4755C69.2568 11.4755 70.8769 13.3655 70.8769 16.3357C71.0119 19.3058 69.2568 21.1958 66.6917 21.1958Z" fill="#FDB913"/>
<path d="M85.457 20.9256H79.7868L86.5371 11.3402C86.8071 11.0702 86.8071 10.8002 86.8071 10.5302C86.8071 10.3952 86.8071 10.1252 86.6721 9.85519L86.4021 9.45017C85.997 8.77515 85.457 8.77515 85.052 8.77515H76.9517C76.1417 8.77515 75.6017 9.31517 75.6017 10.1252V10.5302C75.6017 11.3402 76.1417 11.8803 76.9517 11.8803H81.9469L75.3317 21.4656C75.0616 21.7356 75.0616 22.0056 75.0616 22.2756C75.0616 22.4106 75.0616 22.6806 75.1967 22.9507L75.3317 23.2207C75.7367 23.8957 76.2767 23.8957 76.6817 23.8957H85.457C86.2671 23.8957 86.8071 23.3557 86.8071 22.5456V22.1406C86.8071 21.4656 86.2671 20.9256 85.457 20.9256Z" fill="#FDB913"/>
<path d="M98.284 20.9256H92.6138L99.3641 11.3402C99.6341 11.0702 99.6341 10.8002 99.6341 10.5302C99.6341 10.3952 99.6341 10.1252 99.4991 9.85519L99.2291 9.45017C98.8241 8.77515 98.284 8.77515 97.879 8.77515H89.7787C88.9687 8.77515 88.4287 9.31517 88.4287 10.1252V10.5302C88.4287 11.3402 88.9687 11.8803 89.7787 11.8803H94.7739L88.1587 21.4656C87.8887 21.7356 87.8887 22.0056 87.8887 22.2756C87.8887 22.4106 87.8887 22.6806 88.0237 22.9507L88.1587 23.2207C88.5637 23.8957 89.1037 23.8957 89.5087 23.8957H98.284C99.0941 23.8957 99.6341 23.3557 99.6341 22.5456V22.1406C99.6341 21.4656 99.0941 20.9256 98.284 20.9256Z" fill="#FDB913"/>
<path d="M114.079 22.2756L109.219 9.72018C108.949 9.04516 108.409 8.77515 107.734 8.77515H107.059C106.114 8.77515 105.709 9.31517 105.574 9.72018L100.714 22.2756C100.714 22.4106 100.579 22.5456 100.579 22.8156C100.579 23.4907 101.119 24.0307 101.929 24.0307H102.604C103.279 24.0307 103.819 23.7607 103.954 23.0857L104.899 20.7906H109.759L110.704 23.2207C110.974 23.8957 111.379 24.1657 112.054 24.1657H112.864C113.674 24.1657 114.214 23.6257 114.214 22.9507C114.214 22.5456 114.079 22.4106 114.079 22.2756ZM106.114 17.5505L107.329 14.4453L108.544 17.5505H106.114Z" fill="#FDB913"/>
<path d="M124.203 18.3605C124.203 18.2255 124.068 18.2255 124.068 18.2255C125.823 17.2804 126.768 15.6604 126.768 13.7703C126.768 10.3952 124.608 8.77515 120.423 8.77515H117.183C116.238 8.77515 115.698 9.45017 115.698 10.2602V22.6806C115.698 23.4907 116.238 24.0307 117.048 24.0307H117.723C118.533 24.0307 119.073 23.4907 119.073 22.6806V18.9005H120.423C120.558 19.0355 120.828 19.3055 121.098 19.7105L123.393 23.3557C123.663 23.8957 124.203 24.0307 124.743 24.0307H125.553C126.363 24.0307 126.903 23.4907 126.903 22.8156C126.903 22.5456 126.768 22.2756 126.633 22.0056L124.203 18.3605ZM120.963 15.7954H119.208V11.7453H120.423C123.258 11.7453 123.258 13.0953 123.258 13.6353C123.258 15.6604 121.503 15.7954 120.963 15.7954Z" fill="#FDB913"/>
<path d="M138.517 8.77515H128.796C127.986 8.77515 127.311 9.31517 127.311 10.1252V10.5302C127.311 11.2052 127.986 11.8803 128.796 11.8803H131.901V22.6806C131.901 23.4907 132.441 24.0307 133.251 24.0307H133.927C134.737 24.0307 135.277 23.4907 135.277 22.6806V11.8803H138.382C139.192 11.8803 139.867 11.3402 139.867 10.5302V10.1252C140.002 9.31517 139.327 8.77515 138.517 8.77515Z" fill="#FDB913"/>
<path d="M18.2251 9.99006C17.9551 10.5301 15.795 16.2003 15.795 16.2003C15.795 16.2003 13.4999 10.6651 13.2299 9.99006C12.9599 9.18003 12.1499 8.64001 11.3398 8.64001C10.2598 8.77502 9.44976 9.45004 9.31476 10.3951C9.17976 11.3401 7.6947 21.8705 7.6947 22.2755C7.6947 23.2205 8.50473 24.0306 9.44976 24.0306C10.2598 24.0306 11.0698 23.3555 11.2048 22.5455C11.3398 21.7355 12.0149 16.0653 12.0149 16.0653C12.0149 16.0653 14.0399 21.1955 14.1749 21.4655C14.4449 22.0055 15.12 22.5455 15.795 22.5455C16.47 22.5455 17.145 22.0055 17.415 21.4655C17.5501 21.0605 19.5751 16.0653 19.5751 16.0653C19.5751 16.0653 20.3852 21.7355 20.3852 22.5455C20.5202 23.3555 21.1952 24.0306 22.1402 24.0306C23.0852 24.0306 23.8953 23.2205 23.8953 22.2755C23.8953 21.8705 22.4102 11.3401 22.2752 10.3951C22.1402 9.45004 21.1952 8.64001 20.2501 8.64001C19.3051 8.77502 18.4951 9.31504 18.2251 9.99006Z" fill="#FDB913"/>
<path d="M17.2834 21.6081C17.436 21.4555 17.2834 21.6081 17.2834 21.6081V21.6081Z" fill="#FDB913"/>
<path d="M29.161 10.9351C28.216 10.9351 27.406 11.7451 27.406 12.6901C27.406 12.8251 27.406 13.0951 27.541 13.2301C27.811 14.3102 28.081 15.5252 28.081 16.6053C28.081 23.3555 22.5458 28.8907 15.7956 28.8907C9.04532 28.8907 3.51012 23.3555 3.51012 16.6053C3.51012 9.85502 9.04532 4.31982 15.7956 4.31982C17.0106 4.31982 18.0906 4.45483 19.1707 4.85984C19.3057 4.85984 19.4407 4.99485 19.7107 4.99485C20.6557 4.99485 21.4658 4.18482 21.4658 3.23978C21.4658 2.42976 20.7907 1.61973 20.1157 1.48472C18.7657 1.07971 17.2806 0.944702 15.7956 0.944702C7.02025 0.944702 0 7.96495 0 16.6053C0 25.3806 7.02025 32.4008 15.7956 32.4008C24.4359 32.4008 31.5911 25.3806 31.5911 16.6053C31.5911 15.1202 31.3211 13.6352 30.9161 12.1501C30.6461 11.4751 29.9711 10.9351 29.161 10.9351Z" fill="#FDB913"/>
<path d="M30.3754 5.12988C30.2404 4.99487 30.2404 4.72486 30.3754 4.58986L31.9955 2.9698C32.6705 2.29478 32.6705 1.21474 31.9955 0.539715C31.3204 -0.135309 30.2404 -0.135309 29.5654 0.539715L27.9453 2.15977C27.8103 2.29478 27.5403 2.29478 27.4053 2.15977L25.7852 0.539715C25.1102 -0.135309 24.0302 -0.135309 23.3551 0.539715C22.6801 1.21474 22.6801 2.29478 23.3551 2.9698L24.9752 4.58986C25.1102 4.72486 25.1102 4.99487 24.9752 5.12988L23.3551 6.74994C22.6801 7.42496 22.6801 8.505 23.3551 9.18002C24.0302 9.85505 25.1102 9.85505 25.7852 9.18002L27.4053 7.55997C27.5403 7.42496 27.8103 7.42496 27.9453 7.55997L29.5654 9.18002C30.2404 9.85505 31.3204 9.85505 31.9955 9.18002C32.6705 8.505 32.6705 7.42496 31.9955 6.74994L30.3754 5.12988Z" fill="#FDB913"/>
</g>
<defs>
<clipPath id="clip0_141_2536">
<rect width="140" height="32.4012" fill="white"/>
</clipPath>
</defs>
</svg>
