<svg width="20" height="20" viewBox="0 0 20 20" fill="none" xmlns="http://www.w3.org/2000/svg">
<g opacity="0.6">
<path d="M10 20C15.5228 20 20 15.5228 20 10C20 4.47715 15.5228 0 10 0C4.47715 0 0 4.47715 0 10C0 15.5228 4.47715 20 10 20Z" fill="black"/>
<path fill-rule="evenodd" clip-rule="evenodd" d="M2.82898 9.68561C2.71898 9.61783 2.61232 9.54672 2.5112 9.4745C1.59454 8.81227 1.11565 7.98894 1.16454 7.15783L1.16676 7.12894C1.9412 4.74561 3.71232 2.73116 5.96454 1.63672C5.86343 1.73116 5.76343 1.82894 5.66454 1.93005C4.64565 2.98227 3.84343 4.34783 3.34676 5.87894C2.93787 7.13894 2.75898 8.45116 2.82898 9.68561Z" fill="#FFB000"/>
<path fill-rule="evenodd" clip-rule="evenodd" d="M7.90115 10.601C7.82226 9.40438 7.99226 8.12104 8.39337 6.88549C9.30782 4.07104 11.3456 1.86437 13.4723 1.3866C14.4623 1.7866 15.3689 2.34882 16.1689 3.05993C15.1934 3.41993 14.2211 4.00437 13.4178 4.71882C11.9011 6.06215 11.0223 7.68882 10.8745 9.42438C10.4656 9.65438 9.23782 10.3033 7.90115 10.601Z" fill="#08449C"/>
<path fill-rule="evenodd" clip-rule="evenodd" d="M19.2855 9.98114C19.1922 9.47781 19.0633 8.98559 18.8999 8.51225C18.3277 6.86448 17.2444 5.70337 16.4366 5.02003C16.0155 4.66337 15.6266 4.39781 15.3433 4.22114C15.8033 3.96559 16.2733 3.76337 16.7433 3.6167C18.3788 5.34559 19.281 7.60225 19.2855 9.98114Z" fill="#08449C"/>
<path fill-rule="evenodd" clip-rule="evenodd" d="M7.46435 14.6068C6.98435 14.6068 6.5288 14.5745 6.11213 14.5123C4.8888 14.3312 3.74102 13.9923 2.79324 13.5334C1.89769 13.1012 1.24547 12.5868 0.957689 12.0834L0.943244 12.059C0.791022 11.389 0.714355 10.6968 0.714355 10.0012C0.714355 9.5501 0.746578 9.09899 0.811022 8.65454C1.09213 9.16787 1.52991 9.64787 2.09324 10.0534C3.14991 10.8145 4.5988 11.3112 6.17436 11.4523C6.3188 11.4657 6.46769 11.4723 6.61769 11.4723C7.52769 11.4723 8.56769 11.2379 9.70991 10.7757C10.4488 10.4768 11.0077 10.1734 11.2566 10.0301C11.7955 10.4501 13.3477 11.7457 14.0466 13.2479C13.6321 13.4045 12.7155 13.7323 11.5755 14.0257C10.5366 14.2901 8.98102 14.6068 7.46435 14.6068Z" fill="#FFB000"/>
<path fill-rule="evenodd" clip-rule="evenodd" d="M15.2255 17.6766C15.4777 16.4577 15.3777 15.0121 14.9377 13.5788C14.6399 12.6055 13.9643 11.5877 12.9288 10.5543C12.3532 9.9799 11.8299 9.56657 11.5955 9.3899C11.6888 8.48213 12.0077 7.60879 12.5443 6.79102C12.8132 6.95435 13.4699 7.37546 14.1921 8.0099C15.3099 8.99213 16.0843 10.031 16.4955 11.0999C17.2155 12.9732 17.3699 15.0243 16.881 16.2043L16.8566 16.2621C16.3688 16.7955 15.8221 17.2699 15.2255 17.6766Z" fill="#FFB000"/>
<path fill-rule="evenodd" clip-rule="evenodd" d="M10 19.2856C8.28001 19.2856 6.57779 18.7978 5.1189 17.8989C5.71334 18.12 6.34001 18.2922 6.99001 18.4111C7.58112 18.5189 8.21445 18.5745 8.87556 18.5745C10.0478 18.5745 11.2989 18.4045 12.5945 18.0711C13.4145 17.8578 14.0878 17.6222 14.5456 17.4445C14.4933 17.7178 14.4222 17.9767 14.3345 18.2156C13.0067 18.9156 11.5089 19.2856 10 19.2856Z" fill="#08449C"/>
<path fill-rule="evenodd" clip-rule="evenodd" d="M6.60898 10.7566C6.48231 10.7566 6.35676 10.751 6.23787 10.7399C5.26787 10.6544 4.34009 10.421 3.55009 10.0655C3.41342 8.79324 3.56898 7.42102 4.0012 6.09102C4.84009 3.50991 6.64342 1.44102 8.59676 0.819911C9.05898 0.749911 9.53009 0.714355 10.0001 0.714355C10.8001 0.714355 11.5945 0.816578 12.3634 1.0188C11.5668 1.36324 10.8079 1.90324 10.1045 2.62769C9.06009 3.70213 8.23898 5.09991 7.72898 6.66991C7.29231 8.01213 7.11342 9.41102 7.21009 10.7199C7.0012 10.7444 6.79898 10.7566 6.60898 10.7566Z" fill="#FEFEFE"/>
<path fill-rule="evenodd" clip-rule="evenodd" d="M17.8579 14.9488C17.9379 13.6933 17.6901 12.2188 17.1612 10.8444C16.5757 9.31992 15.4079 8.10658 14.5312 7.35658C13.8634 6.78658 13.2634 6.39436 12.969 6.21325C13.2401 5.87881 13.5501 5.55547 13.8923 5.25214C14.1368 5.03547 14.4001 4.82881 14.6768 4.6377C14.9145 4.76992 15.4334 5.08103 15.9979 5.55992C16.7368 6.1877 17.7257 7.24881 18.2434 8.74103C18.7501 10.2055 18.9012 11.941 18.6479 13.3877C18.4345 13.931 18.1701 14.4544 17.8579 14.9488Z" fill="#FEFEFE"/>
<path fill-rule="evenodd" clip-rule="evenodd" d="M8.87776 17.8022C8.26443 17.8022 7.67665 17.7511 7.12887 17.6511C4.40442 17.1533 2.88442 15.8067 2.35776 15.2511L2.29665 15.1867C1.97998 14.7167 1.70554 14.2167 1.47998 13.6956C1.76665 13.8911 2.09109 14.0767 2.44887 14.2489C3.46776 14.7411 4.69443 15.1033 5.99554 15.2978C6.44887 15.3656 6.9422 15.4 7.45998 15.4C9.0622 15.4 10.69 15.07 11.7722 14.7922C12.9189 14.4978 13.8289 14.1778 14.3178 13.9922C14.5655 14.8733 14.6778 15.7611 14.6444 16.5689C14.2889 16.7189 13.4544 17.0489 12.3911 17.3244C11.55 17.5433 10.2589 17.8022 8.87776 17.8022Z" fill="#FEFEFE"/>
<path opacity="0.5" d="M18.5088 6.17896C18.6954 6.93673 18.7966 7.72784 18.7966 8.5434C18.7966 13.9845 14.3854 18.3956 8.94434 18.3956C7.141 18.3956 5.45322 17.909 3.99878 17.0634C5.621 18.4412 7.721 19.2745 10.0154 19.2745C15.1532 19.2745 19.3177 15.1101 19.3177 9.97229C19.3177 8.62007 19.0277 7.33784 18.5088 6.17896Z" fill="black"/>
</g>
</svg>
