<svg width="20" height="20" viewBox="0 0 20 20" fill="none" xmlns="http://www.w3.org/2000/svg">
<g opacity="0.6">
<path fill-rule="evenodd" clip-rule="evenodd" d="M9.88333 0C9.05 0.0111111 8.24667 0.133333 7.47667 0.333333C7.11 0.428889 6.75222 0.542222 6.40222 0.675556C4.76556 1.30889 3.33222 2.35333 2.24222 3.69222C2.00444 3.98333 1.78667 4.29111 1.58333 4.61111C0.69 6.00333 0.136667 7.63222 0.03 9.38556C0.0177778 9.58889 0 9.79111 0 10C0 10.1722 0.0166667 10.3411 0.0244444 10.5122C0.116667 12.3033 0.672222 13.9711 1.58556 15.3878C1.78667 15.7056 2.00333 16.01 2.23667 16.3C3.31667 17.6278 4.73111 18.6678 6.35 19.3011C6.69889 19.4378 7.05333 19.5533 7.41889 19.6522C8.24333 19.8711 9.10556 20 9.99889 20H10.0011C10.8878 20 11.74 19.8733 12.5544 19.6578C12.9211 19.5611 13.2789 19.4467 13.6244 19.3111C15.2556 18.6767 16.6789 17.6356 17.7644 16.3C17.9978 16.01 18.2133 15.7056 18.4156 15.3878C19.3256 13.9722 19.8811 12.3133 19.9744 10.5267C19.9822 10.3522 20 10.1767 20 10C20 9.79667 19.9811 9.6 19.97 9.40111C19.8656 7.63333 19.3078 5.99111 18.4011 4.58889C18.1967 4.27222 17.98 3.96444 17.7422 3.67222C16.6556 2.34333 15.2267 1.30556 13.5967 0.676667C13.2456 0.543333 12.8889 0.428889 12.5211 0.333333C11.75 0.133333 10.9467 0.0111111 10.1156 0H9.88333Z" fill="black"/>
<path fill-rule="evenodd" clip-rule="evenodd" d="M9.99771 0.908936H9.99994C10.5233 0.908936 11.0377 0.96338 11.5355 1.04894L9.99771 2.16449L8.46216 1.04894C8.96216 0.96338 9.47216 0.908936 9.99771 0.908936Z" fill="#D74D0E"/>
<path fill-rule="evenodd" clip-rule="evenodd" d="M18.9844 8.68552L17.4377 7.55996L18.0255 5.74219C18.5077 6.6433 18.8322 7.63663 18.9844 8.68552Z" fill="#D74D0E"/>
<path fill-rule="evenodd" clip-rule="evenodd" d="M16.4301 16.4277C15.7112 17.1466 14.889 17.7222 14.0012 18.1566L14.6046 16.2988H16.5457C16.5057 16.3399 16.4701 16.3866 16.4301 16.4277Z" fill="#D74D0E"/>
<path fill-rule="evenodd" clip-rule="evenodd" d="M3.45996 16.3H5.37329L5.96996 18.1378C5.02996 17.6689 4.18218 17.0489 3.45996 16.3Z" fill="#D74D0E"/>
<path fill-rule="evenodd" clip-rule="evenodd" d="M1.95882 5.76892L2.54105 7.56003L1.0166 8.6667C1.16993 7.63559 1.48993 6.65892 1.95882 5.76892Z" fill="#D74D0E"/>
<path fill-rule="evenodd" clip-rule="evenodd" d="M12.0035 12.7589H7.96905L6.72461 8.92114L9.98683 6.55225L13.2491 8.92114L12.0035 12.7589Z" fill="#345F93"/>
<path fill-rule="evenodd" clip-rule="evenodd" d="M10.05 19.1433C9.02774 19.1433 8.04663 18.9666 7.12885 18.6511L6.2644 15.9889L7.9144 13.7189H12.1688L13.7666 15.9367L12.8966 18.61C11.9744 18.92 11.0533 19.1433 10.05 19.1433Z" fill="#345F93"/>
<path fill-rule="evenodd" clip-rule="evenodd" d="M0.908936 9.99992C0.908936 9.95325 0.914491 9.90992 0.915602 9.86658L3.14449 8.24658L5.83227 9.1188L7.13338 13.1266L5.4856 15.3921H2.69449C1.57671 13.8799 0.908936 12.0188 0.908936 9.99992Z" fill="#345F93"/>
<path fill-rule="evenodd" clip-rule="evenodd" d="M7.29 1.32104L9.53334 2.95104V5.75771L6.10223 8.25104L3.44111 7.38549L2.58667 4.75438C3.72778 3.14771 5.37 1.92104 7.29 1.32104Z" fill="#D74D0E"/>
<path fill-rule="evenodd" clip-rule="evenodd" d="M17.3988 4.73438L16.5366 7.38549L13.8733 8.25104L10.4421 5.75993V2.9666L12.7077 1.32104C14.6199 1.91882 16.2577 3.13882 17.3988 4.73438Z" fill="#D74D0E"/>
<path fill-rule="evenodd" clip-rule="evenodd" d="M17.3098 15.391H14.491L12.8398 13.1199L14.1398 9.12212L16.901 8.31323L19.1521 9.9499C19.1521 9.9899 19.1498 10.0277 19.1498 10.0666C19.1532 12.0355 18.461 13.8366 17.3098 15.391Z" fill="#D74D0E"/>
<path opacity="0.5" d="M18.6611 6.40332C18.8478 7.1611 18.9489 7.95221 18.9489 8.76665C18.9489 14.2078 14.5378 18.6189 9.09668 18.6189C7.29335 18.6189 5.60557 18.1322 4.15112 17.2867C5.77335 18.6644 7.87335 19.4978 10.1678 19.4978C15.3056 19.4978 19.47 15.3333 19.47 10.1967C19.47 8.84443 19.18 7.5611 18.6611 6.40332Z" fill="black"/>
<path opacity="0.2" d="M11.7069 1.42884C11.7135 1.42884 11.7202 1.42884 11.7269 1.42884C11.9624 1.42884 11.9969 1.08773 11.7647 1.04551C11.2269 0.946619 10.6724 0.895508 10.1069 0.895508C5.88576 0.895508 2.32021 3.74995 1.23576 7.62995C1.17243 7.8544 1.49243 7.97662 1.59465 7.76662C3.4191 4.01773 7.26576 1.42884 11.7069 1.42884Z" fill="white"/>
</g>
</svg>
