<svg width="20" height="20" viewBox="0 0 20 20" fill="none" xmlns="http://www.w3.org/2000/svg">
<g opacity="0.6" clip-path="url(#clip0_125_776)">
<path d="M8.68344 13.1688C9.629 14.1122 10.8857 14.6322 12.2212 14.6322C13.3846 14.6322 14.4757 14.2166 15.3657 13.491C16.009 13.0333 16.2057 12.6355 17.6879 11.8788C18.0957 11.711 18.5246 11.5955 18.9634 11.5233C19.4334 8.71661 18.5968 5.73438 16.4379 3.57549C14.9146 2.05216 12.9479 1.13883 10.829 0.95105C10.8434 2.78438 10.1379 4.64994 8.68233 6.09216C6.73233 8.04216 6.73233 11.2177 8.68344 13.1688Z" fill="#9BF324"/>
<path d="M10.0056 19.1021C12.4356 19.1021 14.7189 18.1554 16.4378 16.4366C17.5689 15.3054 18.3367 13.9477 18.7467 12.5066C17.8667 12.7166 17.0578 13.1554 16.4022 13.811C15.2856 14.9266 13.8011 15.541 12.22 15.541C10.64 15.541 9.15668 14.9277 8.04002 13.811C5.73446 11.5054 5.73446 7.75322 8.04002 5.44766C9.34557 4.18655 9.96335 2.53433 9.93335 0.912109C7.53113 0.932109 5.27446 1.87433 3.57335 3.57433C0.0277957 7.12211 0.0277957 12.8932 3.57335 16.4366C5.29113 18.1554 7.57557 19.1021 10.0056 19.1021Z" fill="#9BF324"/>
<path d="M10.0056 20.0122C12.5667 20.0122 15.1278 19.0356 17.0812 17.08C18.4289 15.7322 19.3012 14.0922 19.7178 12.3667C19.7245 12.3667 19.7312 12.3644 19.7367 12.3644C19.7645 12.2456 19.7812 12.1244 19.8056 12.0056C19.8189 11.9456 19.8301 11.8822 19.8412 11.8211C19.8656 11.6933 19.8978 11.5667 19.9156 11.4356C19.9089 11.4356 19.9034 11.4378 19.8967 11.4378C20.3312 8.42222 19.3989 5.25111 17.08 2.93111C15.3189 1.17 13.0678 0.211111 10.7656 0.0366667C10.7656 0.0366667 10.7656 0.0366667 10.7656 0.0344444C10.75 0.0344444 10.7345 0.0344444 10.7189 0.0344444C10.4812 0.0177778 10.2445 0 10.0056 0C7.44561 0.00222222 4.88449 0.976667 2.93005 2.93222C-0.976616 6.83889 -0.977727 13.1767 2.93005 17.0811C4.88338 19.0344 7.44449 20.0122 10.0056 20.0122ZM10.8289 0.95C12.9478 1.13889 14.9145 2.05111 16.4378 3.57444C18.5978 5.73444 19.4345 8.71667 18.9634 11.5222C18.5245 11.5944 18.0956 11.71 17.6878 11.8778C16.2056 12.6344 16.0089 13.0333 15.3656 13.49C14.4756 14.2144 13.3845 14.6311 12.2212 14.6311C10.8856 14.6311 9.62894 14.1111 8.68338 13.1678C6.73227 11.2167 6.73227 8.04222 8.68338 6.09111C10.1378 4.64889 10.8434 2.78333 10.8289 0.95ZM3.57338 3.57444C5.27449 1.87444 7.53116 0.932222 9.93338 0.912222C9.96338 2.53444 9.3456 4.18667 8.04005 5.44778C5.73449 7.75333 5.73449 11.5056 8.04005 13.8111C9.15672 14.9278 10.6412 15.5411 12.22 15.5411C13.8 15.5411 15.2845 14.9267 16.4023 13.8111C17.0578 13.1556 17.8667 12.7167 18.7467 12.5067C18.3367 13.9489 17.5689 15.3056 16.4378 16.4367C14.7189 18.1556 12.4356 19.1022 10.0056 19.1022C7.57561 19.1022 5.29116 18.1556 3.57338 16.4367C0.0278284 12.8933 0.0278284 7.12111 3.57338 3.57444Z" fill="black"/>
<path opacity="0.5" d="M18.4678 6.02551C18.6544 6.78329 18.7555 7.5744 18.7555 8.38996C18.7555 13.8311 14.3444 18.2422 8.90332 18.2422C7.09999 18.2422 5.4111 17.7555 3.95776 16.91C5.57999 18.2877 7.67999 19.1211 9.97443 19.1211C15.1122 19.1211 19.2767 14.9566 19.2767 9.81885C19.2767 8.46662 18.9855 7.1844 18.4678 6.02551Z" fill="black"/>
<path opacity="0.2" d="M11.6667 1.44215C11.6734 1.44215 11.68 1.44215 11.6867 1.44215C11.9223 1.44215 11.9567 1.10104 11.7245 1.05881C11.1867 0.959925 10.6323 0.908813 10.0667 0.908813C5.8456 0.908813 2.28005 3.76326 1.1956 7.64326C1.13227 7.86881 1.45227 7.98992 1.55449 7.77992C3.37783 4.03104 7.2256 1.44215 11.6667 1.44215Z" fill="white"/>
</g>
<defs>
<clipPath id="clip0_125_776">
<rect width="20" height="20" fill="white"/>
</clipPath>
</defs>
</svg>
